<svg id="Layer_1" data-name="Layer 1" xmlns="http://www.w3.org/2000/svg" viewBox="0 0 200 48"><defs><style>.cls-1{fill:#fff;}</style></defs><title>CeB-BeB_HeaderLogo</title><rect class="cls-1" x="13.68" y="38.03" width="94.88" height="2.83"/><path class="cls-1" d="M5.38,6.84l8.43,24.83h1L21.57,12l6.74,19.66h1L37.15,8.61A6.49,6.49,0,0,1,38.6,6.33l2.72-2.67c.08-.09.23-.19.61-.19h.45V2H31.49V3.39l2.09.4A5.29,5.29,0,0,1,35.94,7a13.17,13.17,0,0,1-.58,2.28L30.77,22.86,26,8.9l-.19-.55a8.31,8.31,0,0,1-.52-2.1,3.84,3.84,0,0,1,2-2.52A3.51,3.51,0,0,1,28,3.48l.43-.12V2H15.21V3.42l.4.05a6.57,6.57,0,0,1,4.06,3.14,26,26,0,0,1,1.12,3.32,6.17,6.17,0,0,1-.42,1.39L16.36,23,11.61,8.66l0-.14A12.86,12.86,0,0,1,11,6.41c0-.93,1.6-2.88,2.64-2.94l.43,0V2H1.64V3.28l1.64.94A4.86,4.86,0,0,1,5.38,6.84Z"/><path class="cls-1" d="M48.24,10.14a6.62,6.62,0,0,1,.94-.08h.46V8.72H39.23V10l.41,0,.6,0c.18,0,.38,0,.54,0,.45,0,1.38,1.16,1.38,1.55V28.73c0,.33-.92,1.13-1.3,1.2a5.73,5.73,0,0,1-1,.08h-.45v1.33h10.4V30H49.4a2.72,2.72,0,0,1-1.21-.2A2.27,2.27,0,0,1,47,28V11.33C47,10.93,47.82,10.21,48.24,10.14Z"/><path class="cls-1" d="M61.06,30l-2,0c-.91,0-2.86-2.82-2.86-4.45V13.22L73.65,31.84h1.17V13.89A4.77,4.77,0,0,1,77,10.27a2.74,2.74,0,0,1,1-.21h.45V8.72H68.43v1.34h.45a4.77,4.77,0,0,1,1.54.17c1.35.61,3.07,3,3.07,3.82v10.8L58.31,8.72H51.15v1.34h.45a7.38,7.38,0,0,1,1.14.12,6.38,6.38,0,0,1,2.14,1.68V25.93c0,1.38-1.13,4-3.3,4.08l-.43,0v1.31h9.91Z"/><path class="cls-1" d="M80.57,15.27c1-1.71,4.58-5.18,6.21-5.18a2.23,2.23,0,0,1,1.65,1.24V28.05c0,1.43-1.75,2-2.85,2h-.45v1.33H96.28V30h-.46c-1,0-2.75-.42-2.75-2V11.45a1.68,1.68,0,0,1,1.46-1.36c1.91,0,6,3.44,6.64,5.25l.14.4,1.37-.4-.13-.43a12.24,12.24,0,0,1-.38-3.27c0-.82,0-1.64.09-2.43l0-.49H79.54v.45a36.56,36.56,0,0,1-.3,5.73l-.07.46,1.25.16Z"/><path class="cls-1" d="M115.08,30h-1.44a1.79,1.79,0,0,1-1.86-1.65V20h1.36c.88,0,1.64.2,2.83,2.74l1.61,3.39c1.26,2.68,3.59,5.87,7.5,5.87a6.39,6.39,0,0,0,2.52-.46l.3-.12L127.81,30l-.56.2a2.91,2.91,0,0,1-1,.19c-1.57,0-2.48-1.56-3.36-3.3l-1.08-2.16A11.36,11.36,0,0,0,117.73,20c3.14-.23,6.45-1.05,6.45-5.18,0-3.06-3.22-6.22-8.6-6.22-.64,0-1.28,0-1.93,0s-1.27.05-1.9.05h-7.52v1.34h.46a4.39,4.39,0,0,1,1.33.13,1.84,1.84,0,0,1,1,1.42V28.39c0,.48-.86,1.12-1.47,1.38a2.4,2.4,0,0,1-.85.24h-.46v1.33h10.85Zm2.4-11.77a5.79,5.79,0,0,1-2.55.45h-3.15V11.86c0-1.54,1.58-1.87,2.91-1.87,2.84,0,4.54,1.79,4.54,4.77A3.76,3.76,0,0,1,117.48,18.24Z"/><path class="cls-1" d="M128.06,10.13c.58.16,1.34.87,1.34,1.17V22.53a8.83,8.83,0,0,0,9,9.06c5.71,0,9.4-3.78,9.4-9.64V13.8c0-.46,1.25-3,2.57-3.49a3.55,3.55,0,0,1,1-.25h.45V8.72H141.18v1.34h.45a7.5,7.5,0,0,1,1.59.13,6.24,6.24,0,0,1,3.23,3.55v8c0,4.75-2.59,7.94-6.45,7.94-2.68,0-5.91-2.32-5.91-5.2V11.73a1.86,1.86,0,0,1,1-1.57,7.52,7.52,0,0,1,1.66-.1h.45V8.72H126.46v1.34h.45A5.87,5.87,0,0,1,128.06,10.13Z"/><path class="cls-1" d="M160.86,30.26c-3.09,0-5.68-4.23-6.54-7.24l-.1-.36-1.38.15.75,7.81.29.09a20.83,20.83,0,0,0,6.05.88c4.21,0,9.12-2,9.12-7.76,0-4.6-3.58-5.83-6.74-6.92-2.57-.89-4.79-1.65-4.79-4,0-1.85,1.47-3.1,3.65-3.1,2.72,0,4.29,2.74,5.67,5.55l.18.36,1.15-.42,0-.36c-.19-1.43-.54-4.12-.64-6l0-.52-.51.1a13,13,0,0,1-3.85.1c-.61-.05-1.23-.11-1.86-.11-3.54,0-7.3,2.19-7.3,6.25s3.54,5.41,6.67,6.56c2.66,1,5,1.82,5,4.09C165.56,28.38,163.76,30.26,160.86,30.26Z"/><path class="cls-1" d="M194,11.64c0-.77,0-1.59.09-2.44l0-.48H171.36v.45a37.81,37.81,0,0,1-.29,5.73l-.07.46,1.24.16.15-.25c1-1.71,4.57-5.18,6.22-5.18a2.23,2.23,0,0,1,1.64,1.24V28.05c0,1.43-1.75,2-2.85,2H177v1.33H188.1V30h-.46c-1,0-2.75-.42-2.75-2V11.45a1.7,1.7,0,0,1,1.46-1.36c1.91,0,6,3.44,6.64,5.25l.14.4,1.37-.4-.13-.43A12.24,12.24,0,0,1,194,11.64Z"/><path class="cls-1" d="M119.1,39.62h0A3.74,3.74,0,0,0,118,39a2.18,2.18,0,0,0,.58-.47,1.92,1.92,0,0,0,.51-1.35,2.59,2.59,0,0,0-.93-2,2.77,2.77,0,0,0-1.88-.8h-5.06v.67h.42a.74.74,0,0,1,.57.22.67.67,0,0,1,.21.45v7.35a.53.53,0,0,1-.24.37.84.84,0,0,1-.54.21h-.42v.67h3.54l1,0,1.11,0a3.33,3.33,0,0,0,2.42-.84,2.81,2.81,0,0,0,.81-2.12A2.35,2.35,0,0,0,119.1,39.62Zm-2.55-1.28a1.24,1.24,0,0,1-1,.41h-1V35.6s0-.1.22-.27a.73.73,0,0,1,.46-.21,1.43,1.43,0,0,1,1.14.54,2.05,2.05,0,0,1,.53,1.46A1.78,1.78,0,0,1,116.55,38.34Zm-2,1.08H116a1.7,1.7,0,0,1,1.42.76,2.57,2.57,0,0,1,.52,1.56,2.19,2.19,0,0,1-.5,1.46,1.35,1.35,0,0,1-1,.59h-.8c-.88,0-1-.4-1-.75Z"/><path class="cls-1" d="M130,43.38h0a5.94,5.94,0,0,1-.85-1.41l-3.35-7.59-.06-.14h-.37l-3.39,7.35a5.11,5.11,0,0,1-1,1.48,3.22,3.22,0,0,1-.56.51,1.09,1.09,0,0,1-.58.14h-.24v.67h4.08v-.67h-.48a.73.73,0,0,1-.59-.2,1.16,1.16,0,0,1-.3-.78,2.5,2.5,0,0,1,.3-1l.4-.88h3.4l.56,1.21a1.59,1.59,0,0,1,.18.62,1.11,1.11,0,0,1-.31.72.85.85,0,0,1-.7.26h-.46v.67h5.4v-.67h-.38A.87.87,0,0,1,130,43.38Zm-6.39-3.7,1.18-2.54,1.11,2.54Z"/><path class="cls-1" d="M138.58,35.12h.77c.06,0,.28,0,.83.61a1.9,1.9,0,0,1,.64,1.12v4.56l-6.55-7h-3.16v.67h.24a1.57,1.57,0,0,1,1,.4,2.25,2.25,0,0,1,.36.34V42a1.93,1.93,0,0,1-.4,1.15,1.18,1.18,0,0,1-1,.58h-.24v.67h4.38v-.67h-.77c-.12,0-.38-.08-.82-.6a1.92,1.92,0,0,1-.52-1.13V36.56l7.53,8h.58V36.85a1.94,1.94,0,0,1,.39-1.14,1.2,1.2,0,0,1,1-.59h.24v-.67h-4.52Z"/><path class="cls-1" d="M151.84,43l-4-5,2-1.63a7.5,7.5,0,0,1,1.36-.86,3,3,0,0,1,1.11-.43h.44v-.67H148.1v.67h.72c.4,0,.48.16.48.42a.73.73,0,0,1-.28.62l-2.51,2.07V35.94a.75.75,0,0,1,.26-.56.71.71,0,0,1,.52-.26h.7v-.67h-4.83v.67h.42a.74.74,0,0,1,.58.27.69.69,0,0,1,.21.47v7.28a.57.57,0,0,1-.24.37.88.88,0,0,1-.55.21h-.42v.67h4.56v-.67h-.43a.77.77,0,0,1-.52-.25.73.73,0,0,1-.26-.57V39.71l2.29,2.84c.35.44.39.64.39.7s0,.47-.89.47h-.24v.67h5.34v-.67h-.24A1.69,1.69,0,0,1,151.84,43Z"/><path class="cls-1" d="M154.16,42.54a.89.89,0,0,0-.3.7,1.62,1.62,0,0,0,.38.86c.27.38.28.51.28.53a1.87,1.87,0,0,1-.32.74.58.58,0,0,0-.15.35.35.35,0,0,0,.37.37.48.48,0,0,0,.41-.26c.38-.63.6-1,.68-1.15a2.67,2.67,0,0,0,.37-1.15,1.41,1.41,0,0,0-.27-.87A1,1,0,0,0,154.16,42.54Z"/><path class="cls-1" d="M171.94,35.12v-.67h-4.52v.67h.77c.06,0,.28,0,.83.61a1.9,1.9,0,0,1,.64,1.12v4.56l-6.55-7H160v.67h.24a1.57,1.57,0,0,1,1,.4,2.25,2.25,0,0,1,.36.34V42a1.93,1.93,0,0,1-.4,1.15,1.18,1.18,0,0,1-1,.58H160v.67h4.38v-.67h-.77c-.12,0-.38-.08-.82-.6a1.9,1.9,0,0,1-.51-1.13V36.56l7.52,8h.57V36.85a2,2,0,0,1,.4-1.14,1.2,1.2,0,0,1,1-.59Z"/><path class="cls-1" d="M171.91,42.57a1.1,1.1,0,0,0-.32.81,1,1,0,0,0,1.12,1.11,1,1,0,0,0,.77-.3,1.06,1.06,0,0,0,.31-.81,1.11,1.11,0,0,0-.29-.79A1.18,1.18,0,0,0,171.91,42.57Z"/><path class="cls-1" d="M184.64,43.38h0a5.94,5.94,0,0,1-.85-1.41l-3.35-7.59-.06-.14H180l-3.38,7.35a5.32,5.32,0,0,1-1,1.48,4.16,4.16,0,0,1-.57.51,1.06,1.06,0,0,1-.58.14h-.24v.67h4.08v-.67h-.48a.73.73,0,0,1-.59-.2,1.16,1.16,0,0,1-.3-.78,2.5,2.5,0,0,1,.3-1l.41-.88h3.4l.55,1.22a1.52,1.52,0,0,1,.18.61,1.11,1.11,0,0,1-.31.72.85.85,0,0,1-.7.26h-.45v.67h5.39v-.67h-.37A.88.88,0,0,1,184.64,43.38Zm-6.39-3.7,1.18-2.54,1.12,2.54Z"/><path class="cls-1" d="M188.1,42.59h0a1.18,1.18,0,0,0-1.59,0,1.1,1.1,0,0,0-.32.81,1,1,0,0,0,1.12,1.11,1,1,0,0,0,.77-.3,1.06,1.06,0,0,0,.31-.81A1.13,1.13,0,0,0,188.1,42.59Z"/><path class="cls-1" d="M197.27,10.52s-.05-.1-.05-.25-.12-.29-.43-.33h0c.19,0,.49-.07.49-.28s-.22-.31-.44-.31H196V9.4h.17v1.14H196v.06h.71v-.06h-.18V10h.09c.18,0,.23,0,.23.28s.09.38.36.38a.7.7,0,0,0,.25,0v0C197.32,10.55,197.28,10.53,197.27,10.52Zm-.67-.62h-.09V9.4h.15c.25,0,.22.06.22.15v.18C196.88,9.87,196.82,9.9,196.6,9.9Z"/><path class="cls-1" d="M196.65,8.77A1.28,1.28,0,0,0,195.32,10,1.34,1.34,0,0,0,198,10,1.28,1.28,0,0,0,196.65,8.77Zm0,2.24a1.07,1.07,0,0,1-1.12-1,1.11,1.11,0,0,1,2.22,0A1.08,1.08,0,0,1,196.67,11Z"/></svg>